<?xml version="1.0" encoding="UTF-8"?>
<svg id="Capa_1" data-name="Capa 1" xmlns="http://www.w3.org/2000/svg" xmlns:xlink="http://www.w3.org/1999/xlink" viewBox="0 0 404.55 499.61">
  <defs>
    <style>
      .cls-1 {
        fill: url(#Degradado_sin_nombre_105);
      }

      .cls-1, .cls-2, .cls-3, .cls-4, .cls-5 {
        stroke-width: 0px;
      }

      .cls-2 {
        fill: #000543;
      }

      .cls-3 {
        fill: #b33fff;
      }

      .cls-4 {
        fill: #fff;
      }

      .cls-5 {
        fill: #00ffce;
      }
    </style>
    <linearGradient id="Degradado_sin_nombre_105" data-name="Degradado sin nombre 105" x1="0" y1="307.07" x2="404.55" y2="307.07" gradientUnits="userSpaceOnUse">
      <stop offset="0" stop-color="#b33fff"/>
      <stop offset="1" stop-color="#00ffce"/>
    </linearGradient>
  </defs>
  <g>
    <path class="cls-5" d="M283.88,176.4c.41-5.05.72-10.17.92-15.36-7.02-.02-12.63-5.84-12.35-12.86h-140.71c.28,7.01-5.33,12.84-12.35,12.86.2,5.19.51,10.31.92,15.36h-25.81l.02,6.3c.07,23.79,5.83,46.23,16.22,63.19,9.25,15.1,21.3,24.49,34.49,27.07,13.29,26.04,30.71,43.04,50,46.33-2.19,46.58-17.72,84.3-37.92,93.78v7.4h88.63v-7.4c-20.17-9.48-35.69-47.12-37.91-93.63,19.64-2.89,37.4-20,50.9-46.42,13.34-2.47,25.53-11.89,34.88-27.14,10.39-16.96,16.15-39.4,16.22-63.19l.02-6.3h-26.16ZM121.46,239.32c-8.3-13.54-13.26-31.23-14.2-50.35h14.31c3.01,25.25,8.69,48.31,16.38,67.8-6.04-3.66-11.66-9.56-16.49-17.44ZM283.09,239.32c-4.96,8.09-10.74,14.08-16.95,17.71,7.75-19.55,13.47-42.7,16.49-68.07h14.67c-.94,19.12-5.9,36.81-14.2,50.35Z"/>
    <path class="cls-3" d="M195.23,319.29c-2.19,46.58-17.72,84.3-37.92,93.78v7.4h88.63v-7.4c-20.17-9.48-35.69-47.12-37.91-93.63l-12.8-.16Z"/>
    <path class="cls-5" d="M257.07,435.78h-110.79v-8.86c0-3.44,2.79-6.23,6.23-6.23h98.32c3.44,0,6.23,2.79,6.23,6.23v8.86Z"/>
    <path class="cls-2" d="M192.4,202.55h-12.91v-18.79h34v82.97h-21.09v-64.17Z"/>
  </g>
  <g>
    <polygon class="cls-1" points="404.55 501.11 0 501.11 0 113.03 3 113.03 3 498.11 401.55 498.11 401.55 113.03 404.55 113.03 404.55 501.11"/>
    <rect class="cls-4" x="0" width="404.55" height="113.03"/>
    <g>
      <path class="cls-2" d="M95.69,49.7h7.93c4.58,0,7.71,2.94,7.71,7.14s-3.03,7.2-7.64,7.2h-2.97v6.16h-5.02v-20.5ZM103.49,59.78c1.8,0,2.94-1.2,2.94-2.91s-1.14-2.91-2.94-2.91h-2.78v5.81h2.78Z"/>
      <path class="cls-2" d="M114.2,49.7h7.52c5.4,0,7.9,2.97,7.9,6.66,0,2.31-1.01,4.71-3.41,5.91l4.14,7.93h-5.56l-3.51-7.11h-2.18v7.11h-4.9v-20.5ZM121.78,59.4c1.99,0,3.03-1.07,3.03-2.78s-1.01-2.84-3.03-2.84h-2.68v5.62h2.68Z"/>
      <path class="cls-2" d="M133.28,49.7h5.02v20.5h-5.02v-20.5Z"/>
      <path class="cls-2" d="M147.46,56.78v13.42h-4.77v-20.5h6.85l4.74,14.59,4.71-14.59h6.85v20.5h-4.77v-13.52l-4.33,13.52h-4.96l-4.33-13.42Z"/>
      <path class="cls-2" d="M170.21,49.7h13.36v4.23h-8.5v3.85h7.74v4.14h-7.74v4.01h8.59v4.26h-13.46v-20.5Z"/>
      <path class="cls-2" d="M187.3,49.7h7.52c5.4,0,7.9,2.97,7.9,6.66,0,2.31-1.01,4.71-3.41,5.91l4.14,7.93h-5.56l-3.51-7.11h-2.18v7.11h-4.9v-20.5ZM194.88,59.4c1.99,0,3.03-1.07,3.03-2.78s-1.01-2.84-3.03-2.84h-2.68v5.62h2.68Z"/>
      <path class="cls-2" d="M212.79,49.7h5.27v15.86h8.21v4.64h-13.49v-20.5Z"/>
      <path class="cls-2" d="M228.24,61.42v-11.72h5.02v11.43c0,3.32,1.61,4.71,4.3,4.71s4.26-1.39,4.26-4.71v-11.43h5.02v11.72c0,6.03-3.73,9.06-9.29,9.06s-9.32-3.03-9.32-9.06Z"/>
      <path class="cls-2" d="M249.88,59.94c0-5.81,4.23-10.55,10.87-10.55,3.22,0,5.91,1.14,7.8,3.19l-3.44,3.38c-1.07-1.2-2.53-1.93-4.39-1.93-3.47,0-5.78,2.72-5.78,5.91s2.34,5.91,5.78,5.91c2.4,0,4.52-1.14,5.02-3.47h-4.55v-3.76h9.48c.06.51.06.98.06,1.48,0,6.82-4.71,10.39-10.04,10.39-6.57,0-10.8-4.74-10.8-10.55Z"/>
      <path class="cls-2" d="M278.47,49.7h5.94l7.3,20.5h-5.02l-1.2-3.6h-7.96l-1.17,3.6h-5.18l7.3-20.5ZM284.06,62.31l-2.59-7.74-2.53,7.74h5.12Z"/>
      <path class="cls-2" d="M294.14,49.7h7.52c5.4,0,7.9,2.97,7.9,6.66,0,2.31-1.01,4.71-3.41,5.91l4.14,7.93h-5.56l-3.51-7.11h-2.18v7.11h-4.9v-20.5ZM301.72,59.4c1.99,0,3.03-1.07,3.03-2.78s-1.01-2.84-3.03-2.84h-2.68v5.62h2.68Z"/>
    </g>
  </g>
</svg>