<?xml version="1.0" encoding="UTF-8"?>
<svg id="Capa_1" data-name="Capa 1" xmlns="http://www.w3.org/2000/svg" xmlns:xlink="http://www.w3.org/1999/xlink" viewBox="0 0 404.55 499.61">
  <defs>
    <style>
      .cls-1 {
        fill: url(#Degradado_sin_nombre_105);
      }

      .cls-1, .cls-2, .cls-3, .cls-4, .cls-5 {
        stroke-width: 0px;
      }

      .cls-2 {
        fill: #000543;
      }

      .cls-3 {
        fill: #b33fff;
      }

      .cls-4 {
        fill: #fff;
      }

      .cls-5 {
        fill: #00ffce;
      }
    </style>
    <linearGradient id="Degradado_sin_nombre_105" data-name="Degradado sin nombre 105" x1="0" y1="307.07" x2="404.55" y2="307.07" gradientUnits="userSpaceOnUse">
      <stop offset="0" stop-color="#b33fff"/>
      <stop offset="1" stop-color="#00ffce"/>
    </linearGradient>
  </defs>
  <polygon class="cls-1" points="404.55 501.11 0 501.11 0 113.03 3 113.03 3 498.11 401.55 498.11 401.55 113.03 404.55 113.03 404.55 501.11"/>
  <rect class="cls-4" x="0" width="404.55" height="113.03"/>
  <g>
    <path class="cls-2" d="M74.68,66.76l3.32-3.16c1.42,1.83,3.41,2.56,5.31,2.56,1.74,0,3.06-.57,3.06-1.8,0-3.66-10.77-1.74-10.77-9.1,0-3.63,3.22-5.88,7.74-5.88,3.19,0,6,1.23,7.77,3.38l-3.13,3.13c-1.17-1.33-2.88-2.21-4.64-2.21-1.67,0-2.81.54-2.81,1.61,0,3.03,10.77,1.61,10.77,8.94,0,3.98-3.51,6.25-8.02,6.25-3.73,0-6.47-1.07-8.59-3.73Z"/>
    <path class="cls-2" d="M94.58,49.7h13.36v4.23h-8.5v3.85h7.74v4.14h-7.74v4.01h8.59v4.26h-13.46v-20.5Z"/>
    <path class="cls-2" d="M110.25,59.94c0-5.81,4.23-10.55,10.87-10.55,3.22,0,5.91,1.14,7.8,3.19l-3.44,3.38c-1.07-1.2-2.53-1.93-4.39-1.93-3.47,0-5.78,2.72-5.78,5.91s2.34,5.91,5.78,5.91c2.4,0,4.52-1.14,5.02-3.47h-4.55v-3.76h9.48c.06.51.06.98.06,1.48,0,6.82-4.71,10.39-10.04,10.39-6.57,0-10.8-4.74-10.8-10.55Z"/>
    <path class="cls-2" d="M133.91,61.42v-11.72h5.02v11.43c0,3.32,1.61,4.71,4.3,4.71s4.26-1.39,4.26-4.71v-11.43h5.02v11.72c0,6.03-3.73,9.06-9.29,9.06s-9.32-3.03-9.32-9.06Z"/>
    <path class="cls-2" d="M156.66,49.7h4.93l9.19,12.67v-12.67h4.8v20.5h-4.64l-9.48-13.14v13.14h-4.8v-20.5Z"/>
    <path class="cls-2" d="M179.94,49.7h8.62c6.19,0,10.23,4.23,10.23,10.23s-4.07,10.27-10.2,10.27h-8.65v-20.5ZM188.31,65.69c3.22,0,5.43-2.08,5.43-5.75s-2.21-5.72-5.43-5.72h-3.35v11.47h3.35Z"/>
    <path class="cls-2" d="M200.98,59.97c0-5.84,4.42-10.58,10.8-10.58s10.8,4.64,10.8,10.55-4.58,10.55-10.8,10.55-10.8-4.55-10.8-10.52ZM211.78,65.84c3.35,0,5.75-2.59,5.75-5.88s-2.37-5.94-5.75-5.94-5.75,2.72-5.75,5.97,2.4,5.84,5.75,5.84Z"/>
    <path class="cls-2" d="M232.25,49.7h5.27v15.86h8.21v4.64h-13.49v-20.5Z"/>
    <path class="cls-2" d="M247.7,61.42v-11.72h5.02v11.43c0,3.32,1.61,4.71,4.3,4.71s4.26-1.39,4.26-4.71v-11.43h5.02v11.72c0,6.03-3.73,9.06-9.29,9.06s-9.32-3.03-9.32-9.06Z"/>
    <path class="cls-2" d="M269.34,59.94c0-5.81,4.23-10.55,10.87-10.55,3.22,0,5.91,1.14,7.8,3.19l-3.44,3.38c-1.07-1.2-2.53-1.93-4.39-1.93-3.47,0-5.78,2.72-5.78,5.91s2.34,5.91,5.78,5.91c2.4,0,4.52-1.14,5.02-3.47h-4.55v-3.76h9.48c.06.51.06.98.06,1.48,0,6.82-4.71,10.39-10.04,10.39-6.57,0-10.8-4.74-10.8-10.55Z"/>
    <path class="cls-2" d="M297.93,49.7h5.94l7.3,20.5h-5.02l-1.2-3.6h-7.96l-1.17,3.6h-5.18l7.3-20.5ZM303.52,62.31l-2.59-7.74-2.53,7.74h5.12Z"/>
    <path class="cls-2" d="M313.6,49.7h7.52c5.4,0,7.9,2.97,7.9,6.66,0,2.31-1.01,4.71-3.41,5.91l4.14,7.93h-5.56l-3.51-7.11h-2.18v7.11h-4.9v-20.5ZM321.18,59.4c1.99,0,3.03-1.07,3.03-2.78s-1.01-2.84-3.03-2.84h-2.68v5.62h2.68Z"/>
  </g>
  <g>
    <rect class="cls-3" x="128.93" y="156.68" width="146.74" height="56.34"/>
    <g>
      <circle class="cls-5" cx="201.77" cy="380.23" r="62"/>
      <path class="cls-2" d="M202.5,432.71c-29.52.4-53.62-23.69-53.22-53.22.39-28.31,23.44-51.36,51.75-51.75,29.52-.4,53.62,23.69,53.22,53.22-.39,28.31-23.44,51.36-51.75,51.75ZM202.45,331.79c-27.24-.37-49.49,21.87-49.11,49.11.36,26.13,21.63,47.4,47.76,47.76,27.24.37,49.49-21.87,49.11-49.11-.36-26.13-21.63-47.4-47.76-47.76Z"/>
    </g>
    <path class="cls-2" d="M184.34,394.67l17.78-17.48c2.7-2.63,4.65-4.73,4.65-7.8s-2.03-4.8-5.33-4.8c-3.6,0-5.63,2.48-5.63,6.3h-11.4c0-10.13,6.38-16.8,17.18-16.8s16.58,5.93,16.58,15.23c0,5.7-2.7,9.68-8.33,15.08l-8.4,8.33h17.78v10.8h-34.88v-8.85Z"/>
    <path class="cls-3" d="M200.16,318.25l-71.24-161.57-56.3,24.82,74.61,169.21c10.25-18.91,30.05-31.88,52.93-32.47Z"/>
    <path class="cls-3" d="M256.86,351.75l75.06-170.25-56.3-24.82-71.25,161.61c22.87.94,42.55,14.27,52.49,33.47Z"/>
  </g>
</svg>