<?xml version="1.0" encoding="UTF-8"?>
<svg id="Capa_1" data-name="Capa 1" xmlns="http://www.w3.org/2000/svg" xmlns:xlink="http://www.w3.org/1999/xlink" viewBox="0 0 404.55 499.61">
  <defs>
    <style>
      .cls-1 {
        fill: url(#Degradado_sin_nombre_105);
      }

      .cls-1, .cls-2, .cls-3, .cls-4, .cls-5 {
        stroke-width: 0px;
      }

      .cls-2 {
        fill: #000543;
      }

      .cls-3 {
        fill: #b33fff;
      }

      .cls-4 {
        fill: #fff;
      }

      .cls-5 {
        fill: #00ffce;
      }
    </style>
    <linearGradient id="Degradado_sin_nombre_105" data-name="Degradado sin nombre 105" x1="0" y1="307.07" x2="404.55" y2="307.07" gradientUnits="userSpaceOnUse">
      <stop offset="0" stop-color="#b33fff"/>
      <stop offset="1" stop-color="#00ffce"/>
    </linearGradient>
  </defs>
  <polygon class="cls-1" points="404.55 501.11 0 501.11 0 113.03 3 113.03 3 498.11 401.55 498.11 401.55 113.03 404.55 113.03 404.55 501.11"/>
  <rect class="cls-4" x="0" width="404.55" height="113.03"/>
  <g>
    <path class="cls-2" d="M99.72,54.25h-6.35v-4.55h17.69v4.55h-6.32v15.95h-5.02v-15.95Z"/>
    <path class="cls-2" d="M113.78,49.7h13.36v4.23h-8.5v3.85h7.74v4.14h-7.74v4.01h8.59v4.26h-13.46v-20.5Z"/>
    <path class="cls-2" d="M130.87,49.7h7.52c5.4,0,7.9,2.97,7.9,6.66,0,2.31-1.01,4.71-3.41,5.91l4.14,7.93h-5.56l-3.51-7.11h-2.18v7.11h-4.9v-20.5ZM138.45,59.4c1.99,0,3.03-1.07,3.03-2.78s-1.01-2.84-3.03-2.84h-2.68v5.62h2.68Z"/>
    <path class="cls-2" d="M159.36,49.39c3.82,0,6.88,1.71,8.81,4.71l-4.33,2.46c-.95-1.55-2.56-2.53-4.52-2.53-3.32,0-5.65,2.72-5.65,5.91s2.34,5.91,5.72,5.91c1.96,0,3.57-.98,4.52-2.53l4.33,2.46c-1.93,3-5.02,4.71-8.81,4.71-6.57,0-10.8-4.74-10.8-10.55s4.23-10.55,10.74-10.55Z"/>
    <path class="cls-2" d="M170.89,49.7h13.36v4.23h-8.5v3.85h7.74v4.14h-7.74v4.01h8.59v4.26h-13.46v-20.5Z"/>
    <path class="cls-2" d="M187.98,49.7h7.52c5.4,0,7.9,2.97,7.9,6.66,0,2.31-1.01,4.71-3.41,5.91l4.14,7.93h-5.56l-3.51-7.11h-2.18v7.11h-4.9v-20.5ZM195.56,59.4c1.99,0,3.03-1.07,3.03-2.78s-1.01-2.84-3.03-2.84h-2.68v5.62h2.68Z"/>
    <path class="cls-2" d="M213.47,49.7h5.27v15.86h8.21v4.64h-13.49v-20.5Z"/>
    <path class="cls-2" d="M228.92,61.42v-11.72h5.02v11.43c0,3.32,1.61,4.71,4.3,4.71s4.26-1.39,4.26-4.71v-11.43h5.02v11.72c0,6.03-3.73,9.06-9.29,9.06s-9.32-3.03-9.32-9.06Z"/>
    <path class="cls-2" d="M250.56,59.94c0-5.81,4.23-10.55,10.87-10.55,3.22,0,5.91,1.14,7.8,3.19l-3.44,3.38c-1.07-1.2-2.53-1.93-4.39-1.93-3.47,0-5.78,2.72-5.78,5.91s2.34,5.91,5.78,5.91c2.4,0,4.52-1.14,5.02-3.47h-4.55v-3.76h9.48c.06.51.06.98.06,1.48,0,6.82-4.71,10.39-10.04,10.39-6.57,0-10.8-4.74-10.8-10.55Z"/>
    <path class="cls-2" d="M279.15,49.7h5.94l7.3,20.5h-5.02l-1.2-3.6h-7.96l-1.17,3.6h-5.18l7.3-20.5ZM284.74,62.31l-2.59-7.74-2.53,7.74h5.12Z"/>
    <path class="cls-2" d="M294.82,49.7h7.52c5.4,0,7.9,2.97,7.9,6.66,0,2.31-1.01,4.71-3.41,5.91l4.14,7.93h-5.56l-3.51-7.11h-2.18v7.11h-4.9v-20.5ZM302.4,59.4c1.99,0,3.03-1.07,3.03-2.78s-1.01-2.84-3.03-2.84h-2.68v5.62h2.68Z"/>
  </g>
  <g>
    <rect class="cls-3" x="128.93" y="156.68" width="146.74" height="56.34"/>
    <g>
      <circle class="cls-5" cx="201.77" cy="380.23" r="62"/>
      <path class="cls-2" d="M202.5,432.71c-29.52.4-53.62-23.69-53.22-53.22.39-28.31,23.44-51.36,51.75-51.75,29.52-.4,53.62,23.69,53.22,53.22-.39,28.31-23.44,51.36-51.75,51.75ZM202.45,331.79c-27.24-.37-49.49,21.87-49.11,49.11.36,26.13,21.63,47.4,47.76,47.76,27.24.37,49.49-21.87,49.11-49.11-.36-26.13-21.63-47.4-47.76-47.76Z"/>
    </g>
    <path class="cls-2" d="M182.77,393.7l9.23-5.18c1.43,3.68,3.98,5.85,8.48,5.85s6.98-2.25,6.98-5.78c0-3.9-2.78-6.15-7.5-6.15h-3.3l-3.6-6.08,9.38-11.55h-16.8v-9.98h30.75v8.4l-9.83,11.7c7.65,1.65,12,6.68,12,13.73,0,9.3-6.98,15.53-18.08,15.53-8.1,0-14.7-3.45-17.7-10.5Z"/>
    <path class="cls-3" d="M200.16,318.25l-71.24-161.57-56.3,24.82,74.61,169.21c10.25-18.91,30.05-31.88,52.93-32.47Z"/>
    <path class="cls-3" d="M256.86,351.75l75.06-170.25-56.3-24.82-71.25,161.61c22.87.94,42.55,14.27,52.49,33.47Z"/>
  </g>
</svg>