<?xml version="1.0" encoding="UTF-8"?>
<svg id="Capa_1" data-name="Capa 1" xmlns="http://www.w3.org/2000/svg" viewBox="0 0 299.22 79.51">
  <defs>
    <style>
      .cls-1 {
        fill: #fff;
        stroke-width: 0px;
      }
    </style>
  </defs>
  <g>
    <g>
      <path class="cls-1" d="M79.85,47.34v20.21h6.36v-9.61h22v-6.36h-22v-2.31c0-.57.46-1.03,1.03-1.03h20.98v-6.36h-22.91c-3.01,0-5.45,2.44-5.45,5.45Z"/>
      <rect class="cls-1" x="114.12" y="41.89" width="6.36" height="25.67"/>
      <polygon class="cls-1" points="125.49 48.25 136.07 48.25 136.07 67.55 136.12 67.55 142.44 67.55 142.48 67.55 142.48 48.25 152.72 48.25 152.72 41.89 125.49 41.89 125.49 48.25"/>
      <polygon class="cls-1" points="196.19 14.26 206.42 14.26 206.42 7.9 179.2 7.9 179.2 14.26 189.78 14.26 189.78 33.59 189.83 33.59 196.19 33.59 196.19 14.26"/>
      <path class="cls-1" d="M138.84,33.87c.86,0,1.73-.21,2.54-.65,1.75-.95,2.76-2.87,2.76-4.87V7.9h-6.36v17.85l-14.49-16.35-.13-.14c-1.89-1.89-4.94-2.13-7.16-.31-1.25,1.02-1.88,2.61-1.88,4.22v20.43h6.36V15.82l14.62,16.49c1.02,1.02,2.36,1.55,3.74,1.55Z"/>
      <path class="cls-1" d="M181.35,59.81l-14.49-16.35-.13-.14c-1.61-1.61-4.06-2.02-6.13-.98-1.82.91-2.91,2.83-2.91,4.87v20.36h6.36v-17.68l14.62,16.49c1.02,1.02,2.36,1.55,3.74,1.55.92,0,1.85-.24,2.7-.74,1.65-.96,2.6-2.78,2.6-4.69v-20.54h-6.36v17.85Z"/>
      <path class="cls-1" d="M250.38,51.55h-14.96c-.89,0-1.62-.72-1.62-1.62s.74-1.66,1.66-1.66h21.65v-6.38h-21.62c-4.41,0-8.03,3.61-8.03,8.02v.04c0,4.4,3.57,7.97,7.97,7.97h14.97c.92,0,1.66.74,1.66,1.66s-.73,1.63-1.63,1.63h-21.88v6.36h21.83c4.42,0,8.01-3.59,8.01-8.01h0c0-4.41-3.61-8.02-8.02-8.02Z"/>
      <path class="cls-1" d="M269.29,33.59h23.05v-6.36h-21.12c-.57,0-1.03-.46-1.03-1.03v-2.28h22.14v-6.36h-22.14v-2.28c0-.57.46-1.03,1.03-1.03h21.12v-6.36s-23.05,0-23.05,0c-3.01,0-5.45,2.44-5.45,5.45v14.78c0,3.01,2.44,5.45,5.45,5.45Z"/>
      <path class="cls-1" d="M297.97,64.89c0-.49-.38-.78-.95-.78h-1.1v2.46h.47v-.85h.51l.6.85h.56l-.66-.93c.34-.1.57-.34.57-.75ZM297.01,65.31h-.61v-.78h.61c.3,0,.49.14.49.39,0,.24-.18.39-.49.39Z"/>
      <path class="cls-1" d="M296.88,63.06c-1.32,0-2.35,1.07-2.35,2.35s1.02,2.34,2.34,2.34,2.35-1.07,2.35-2.35-1.02-2.34-2.34-2.34ZM296.87,67.28c-1.06,0-1.86-.83-1.86-1.87s.81-1.88,1.87-1.88,1.86.83,1.86,1.87-.81,1.88-1.87,1.88Z"/>
      <path class="cls-1" d="M199.67,60.19v-2.28h22.14s0-6.36,0-6.36h-22.14v-2.28c0-.57.46-1.03,1.03-1.03l21.12.02v-6.38h-23.05c-3.01,0-5.45,2.44-5.45,5.45v14.78c0,3.01,2.44,5.45,5.45,5.45h23.34v-6.36h-21.41c-.57,0-1.03-.46-1.03-1.03Z"/>
      <rect class="cls-1" x="210.63" y="7.9" width="6.36" height="25.69"/>
      <path class="cls-1" d="M255.82,7.89c-1.33-.39-2.81-.19-4,.53-1.48.89-2.38,2.47-3.22,3.98-2.74,4.9-5.48,9.81-8.23,14.71-2.86-5.07-5.71-10.13-8.57-15.2-.64-1.14-1.31-2.31-2.33-3.12-1.08-.86-2.53-1.25-3.9-1.04-1.37.21-2.63,1.02-3.4,2.17-1.08,1.63-1.11,3.7-1.1,5.65.02,5.66.05,12.35.07,18.01h6.33c0-5.47.02-10.95.02-16.42,2.17,3.88,4.34,7.76,6.51,11.64.79,1.42,1.62,2.88,2.93,3.85,1.96,1.46,4.88,1.46,6.85,0,.7-.52,1.27-1.18,1.76-1.9.43-.63.81-1.3,1.18-1.96,2.17-3.88,4.34-7.76,6.5-11.65,0,5.47.02,10.95.02,16.42,2.11,0,4.23,0,6.34,0,0-6.19.01-12.38.02-18.56,0-1.55-.01-3.16-.7-4.54-.62-1.24-1.77-2.2-3.09-2.58Z"/>
      <polygon class="cls-1" points="158.48 33.59 164.85 33.59 164.85 22.02 177.35 7.9 168.85 7.9 161.67 16.01 154.48 7.9 145.98 7.9 158.48 22.01 158.48 33.59"/>
      <path class="cls-1" d="M285.61,51.55h-14.96c-.89,0-1.62-.72-1.62-1.62,0-.92.74-1.66,1.66-1.66h21.65v-6.38h-21.62c-4.41,0-8.03,3.61-8.03,8.02v.04c0,4.4,3.57,7.97,7.97,7.97h14.97c.92,0,1.66.74,1.66,1.66s-.73,1.63-1.63,1.63h-21.88v6.36h21.83c4.42,0,8.01-3.59,8.01-8.01h0c0-4.41-3.61-8.02-8.02-8.02Z"/>
    </g>
    <path class="cls-1" d="M105.19,33.59h7.08l-11.08-22.71c-.96-1.94-2.93-3.17-5.09-3.17h-.1c-2.17,0-4.14,1.23-5.1,3.18l-11.05,22.71h7.08l2.59-5.48h9.34l-3.14-6.35h-3.08l3.41-6.94,9.15,18.78Z"/>
  </g>
  <g>
    <path class="cls-1" d="M60.29,1.8c-2.18-2.18-5.96-2.5-7.97-.28,0,0-13.26,17.27-16.73,20.71-5.14,5.09-10.6,9.16-16.02,12.13-.65.36-1.42.37-1.95-.16l-7.98-7.93c-3.08-3.08-6.66-2.84-8.46-1.04-1.59,1.59-1.88,4.49,1.04,7.41l11.65,11.58c1.95,1.95,5.05,2.25,7.33.76l.28-.19c3.47-2.52,9.07-9,12.81-13.79.64-.82,1.8-1.01,2.64-.42,10.95,7.69,15.09,10.81,16.65,12.06,1.52,1.23,2.13,2,2.11,2.64-.04,1.29-2.69,3.37-5.56,5.43-3.53,2.53-5.79,4.3-7.36,5.73-2.2,2.08-3.01,3.14-3.51,4.81-.36,1.21-.12,2.6.06,3.12.54,1.55,1.76,2.89,3.56,4.01l16.71,9.72c4.97,2.69,7.46,1.07,8.89-1.08,1.34-2.01,1.94-5.77-2.65-8.56l-12.01-7.56c-1.31-.79-.8-1.67-.53-1.97.61-.66,3.18-3.06,3.82-3.68,4.04-3.96,5.99-7.46,5.97-10.7-.02-3.34-2.17-5.81-4.04-7.59-1.77-1.69-3.44-3.33-5.97-5.82-2.01-1.97-4.55-4.47-8.08-7.91-.46-.45-.71-1.06-.69-1.66.02-.54.27-1.03.69-1.38,1.39-1.14,3.18-2.73,4.91-4.27,1.77-1.58,3.44-3.06,4.62-4.01.59-.48,1.45-.44,2,.09l8,7.74c1.93,1.93,4.34,2.75,6.44,2.18.66-.18,1.25-.48,1.73-.88.64-.53,1.11-1.24,1.32-2.05.28-1.04.38-3.16-2.07-5.61L60.29,1.8Z"/>
    <circle class="cls-1" cx="26.67" cy="12.77" r="8.64"/>
  </g>
</svg>