<?xml version="1.0" encoding="UTF-8"?>
<svg id="Capa_1" data-name="Capa 1" xmlns="http://www.w3.org/2000/svg" viewBox="0 0 847.57 287.9">
  <defs>
    <style>
      .cls-1 {
        fill: #fff;
        stroke-width: 0px;
      }
    </style>
  </defs>
  <path class="cls-1" d="M538.08,159.03c0-10.45.03-20.36-.01-30.27-.02-4.47.94-4.38-4.45-4.36-5.29.01-10.58.17-15.86-.07-2.78-.12-3.33.87-3.29,3.41.14,9.19.06,18.38.05,27.57,0,1.13-.09,2.27-.16,3.72-6.38,0-12.48,0-18.59,0-3.17,0-6.36-.18-9.51.04-2.6.18-3.21-.81-3.2-3.25.08-17.11.01-34.22.01-51.33,0-13.31.09-26.62-.04-39.92-.03-2.84.9-3.58,3.62-3.53,8.24.16,16.49.17,24.74,0,2.6-.05,3.23.84,3.2,3.27-.12,9.4.02,18.8-.1,28.2-.03,2.48.68,3.31,3.22,3.24,6.63-.17,13.27-.06,20.36-.06,0-2.09,0-3.85,0-5.61,0-8.66.08-17.32-.05-25.98-.04-2.4.75-3.08,3.08-3.05,8.46.1,16.92.1,25.37-.04,2.45-.04,3.02.87,3.02,3.14-.06,30.63-.04,61.26-.07,91.89,0,1.27.47,2.97-1.76,2.97-9.71,0-19.41,0-29.59,0Z"/>
  <path class="cls-1" d="M169.51,159.05c-5.39,0-10.44,0-15.5,0-5.07,0-10.15.09-15.22-.13-.97-.04-2.47-1.21-2.72-2.13-1.16-4.16-1.96-8.41-2.97-12.98-1.38-.07-2.8-.21-4.23-.22-6.13-.03-12.27.16-18.39-.11-2.77-.12-3.74,1.03-4.24,3.38-.71,3.41-1.43,6.82-2.39,10.16-.24.82-1.43,1.94-2.2,1.94-10.04.1-20.08.03-30.12-.02-.19,0-.37-.17-.85-.39.39-1.85.73-3.79,1.22-5.69,7.61-29.4,15.26-58.8,22.82-88.21.68-2.65,1.8-3.69,4.72-3.65,13.85.18,27.7.15,41.54.05,2.38-.02,3.53.51,4.16,3.02,5.54,21.98,11.23,43.93,16.9,65.89,2.08,8.06,4.25,16.1,6.35,24.16.39,1.51.68,3.05,1.09,4.94ZM127.13,118.35c-2.18-9.38-4.24-18.29-6.3-27.19l-1.57-.05c-2.14,8.99-4.28,17.98-6.49,27.24h14.36Z"/>
  <path class="cls-1" d="M847.57,159.02c-5.69,0-10.75,0-15.8,0-4.86,0-9.73-.07-14.59.07-2.1.06-2.99-.63-3.34-2.74-.56-3.32-1.56-6.57-2.21-9.88-.41-2.06-1.17-3.03-3.54-2.97-6.87.18-13.75.13-20.62.04-1.94-.03-2.82.52-3.17,2.54-.63,3.63-1.5,7.23-2.5,10.78-.24.85-1.37,2.04-2.1,2.05-10.34.13-20.69.09-31.37.09,2.42-9.4,4.73-18.47,7.08-27.52,5.83-22.46,11.71-44.91,17.46-67.39.58-2.28,1.51-3.04,3.86-3.03,14.06.09,28.13.1,42.19-.05,2.67-.03,3.62.97,4.23,3.37,6.52,25.54,13.13,51.07,19.73,76.59,1.5,5.8,3.03,11.59,4.71,18.05ZM805.02,118.34c-2.16-9.34-4.22-18.28-6.29-27.21-.45-.02-.89-.05-1.34-.07-2.72,8.86-4.41,17.98-6.67,27.28h14.3Z"/>
  <path class="cls-1" d="M667.11,61.08c0,5.54,0,10.49,0,15.45-.03,14.9.18,29.8-.2,44.69-.21,8.18-.55,16.46-4.26,24.14-4.13,8.56-11.07,13.04-20.17,14.61-12.63,2.19-25.28,2.28-37.8-.59-12.03-2.76-20.01-12.27-20.75-25.94-.88-16.12-.9-32.28-1.2-48.43-.13-6.97.03-13.95-.06-20.92-.03-2.05.37-3.08,2.77-3.05,8.67.12,17.35.13,26.02,0,2.74-.04,2.75,1.46,2.74,3.43-.04,21.98-.04,43.95-.06,65.93,0,4.15,0,4.19,4.09,4.16,3.49-.02,6.98-.03,10.46-.23,5.23-.31,6.73-1.88,6.75-7.08.05-20.5.05-41,.07-61.49q0-4.69,4.6-4.67c8.86,0,17.72,0,27,0Z"/>
  <path class="cls-1" d="M206.88,159.01c-4.65,0-8.96,0-13.26,0-4.97,0-9.94-.12-14.91.06-2.43.09-3.03-.75-3.02-3.07.08-17.22.04-34.43.03-51.65,0-13.41,0-26.83-.05-40.24,0-1.75,0-3.08,2.39-3.06,17.34.13,34.69-.15,52.01.39,11.03.34,19.95,5.21,24.96,15.63,2.8,5.82,3.65,12.12,3.74,18.48.12,8.59-.59,17.08-4.49,24.99-4.45,9.02-12.16,13.42-21.69,14.37-7.33.73-14.78.46-22.18.37-2.71-.03-3.7.6-3.61,3.5.22,6.62.07,13.25.07,20.24ZM206.91,110.1c4.17,0,7.85.13,11.53-.03,4.77-.21,6.58-2.14,6.7-6.96.09-3.59,0-7.17-.03-10.76-.03-3.07-1.6-5.18-4.58-5.55-3.96-.49-7.99-.56-11.99-.61-.54,0-1.55,1.13-1.56,1.75-.11,7.26-.07,14.52-.07,22.16Z"/>
  <path class="cls-1" d="M467.57,86.06c-7.37-.46-14.3-.91-21.23-1.3-1.26-.07-2.54.03-3.8.13-6.83.55-8.73,2.56-8.75,9.31-.04,11.83.09,23.67-.14,35.49-.06,3.15.9,4.24,3.92,4.56,10.75,1.12,21.28.34,31.84-3.07.22.67.55,1.3.61,1.96.68,7.25,1.27,14.51,2,21.75.19,1.92-.34,2.83-2.29,3.39-15.11,4.32-30.27,4.38-45.36.2-10.89-3.02-17.92-10.63-20.89-21.15-5.06-17.91-5.02-36.16-.12-54.1,3.69-13.49,13.62-20.65,27.08-23.14,13.21-2.44,26.29-1.53,39.25,1.82,1.49.38,2.6.79,2.21,2.7-1.49,7.21-2.92,14.44-4.33,21.45Z"/>
  <path class="cls-1" d="M38.58,61.08c11.63,0,23.27.09,34.9-.06,2.92-.04,3.84.87,3.74,3.76-.19,6.02-.13,12.04-.03,18.06.04,2.36-.58,3.37-3.21,3.28-5.49-.19-11,.09-16.49-.08-2.53-.08-3.25.72-3.24,3.22.06,21.97-.07,43.94.03,65.92.01,3-.72,3.99-3.83,3.9-8.03-.22-16.08-.24-24.11.01-3.17.1-3.6-1.11-3.59-3.82.08-21.76-.04-43.52.11-65.29.02-3.32-.99-4.12-4.12-3.97-5.17.25-10.37-.07-15.54.14-2.61.1-3.25-.82-3.19-3.26.15-6.12.2-12.26,0-18.38-.1-2.91,1-3.52,3.67-3.49,11.63.13,23.26.05,34.9.06Z"/>
  <path class="cls-1" d="M380.8,102.96c-4.74-.47-9.03-.89-13.61-1.34,1.15-2.96.02-4.55-2.81-5.3-2.21-.59-1.68-2.3-.7-3.39,1.95-2.18,1.27-4.03.2-6.33-.88-1.89-1.16-4.14-1.35-6.26-.2-2.25-.78-4.05-3.17-5.09v3.06c-3.33-1.98-6.62-4.24-10.17-5.96-3.63-1.77-3.74-1.54-4.21-5.06-4.6-1.37-4.65-1.34-4.93,2.54-.94-.57-2.11-1.83-3.39-1.94-4.3-.37-8.64-.37-12.97-.44-2.86-.05-5.75,1.18-8.55-.83-.75-.54-2.42.18-4.15.38,1.3,4.03-1.8,4.33-4.23,5.51-3.29,1.61-6.38,3.6-9.49,5.39v-2.7c-2.34.84-3.3,2.41-3.39,4.57-.12,2.93.02,5.8-2.03,8.41-.64.82-.18,3.13.54,4.27,1.34,2.1,1.51,3.06-1.14,4.17-1.29.54-1.96,2.57-2.91,3.92.25.33.5.66.75.99-4.45.28-8.91.56-13.95.87,1.08-4.68,2.02-8.95,3.07-13.19,5.74-23.15,11.5-46.3,17.27-69.44.86-3.46,2.01-3.81,4.56-1.28,8.79,8.7,17.53,17.44,26.31,26.15.58.58,1.23,1.08,2.49,2.18,3.47-3.69,6.79-7.36,10.25-10.88,5.78-5.87,11.64-11.67,17.51-17.44.69-.68,1.73-.99,2.61-1.47.43.88,1.04,1.72,1.28,2.66,6.72,26.92,13.4,53.86,20.07,80.79.17.68.13,1.42.22,2.49ZM323,66.43c2.56,0,5.19-.18,7.79.05,2.54.23,3.57-.36,3.57-3.17,0-2.21.95-4.42,1.48-6.63.34.05.69.09,1.03.14.42.73.84,1.47,1.58,2.77.16-1.11.41-1.92.27-2-3.09-1.63-6.21-3.17-9.17-4.64-.3-1.36-.59-2.72-.89-4.07-.38-.17-.77-.34-1.15-.5,1.29,6.01-3.2,5.7-6.3,6.97-1.15.47-2.27,1.1-3.27,1.83-.22.16.08,1.05.2,2.17.79-1.16,1.25-1.85,1.72-2.54.33-.01.66-.02.98-.03.71,3.15,1.41,6.29,2.17,9.67ZM318.21,67.24c.29-.14.58-.28.86-.42.05-1.01.29-2.06.1-3.03-.21-1.05-.73-2.08-1.32-2.99-.09-.14-1.76.33-1.79.6-.13,1.23-.14,2.57.24,3.73.27.82,1.24,1.41,1.9,2.1ZM337.61,66.98c.52.1,1.04.19,1.56.29.57-1.65,1.26-3.28,1.61-4.97.08-.38-.99-1.24-1.66-1.44-.36-.1-1.38.69-1.43,1.16-.18,1.64-.07,3.31-.07,4.96Z"/>
  <path class="cls-1" d="M711.91,134.06c9.12,0,17.77,0,26.42,0q4.75,0,4.76,4.82c0,5.81-.05,11.62.04,17.43.03,2.03-.59,2.75-2.71,2.75-19.14-.07-38.29-.07-57.43,0-2.33.01-2.81-.89-2.8-2.98.04-30.64.06-61.28-.03-91.92,0-2.66,1.03-3.15,3.37-3.12,8.35.1,16.71.14,25.06-.01,2.69-.05,3.38.85,3.37,3.43-.09,21.98-.05,43.95-.05,65.93,0,1.04,0,2.08,0,3.67Z"/>
  <path class="cls-1" d="M461.82,209.56c-1.42,3.45-2.84,6.89-4.26,10.34-.84,2.05-1.86,4.04-2.49,6.15-.84,2.77-2.4,3.71-5.34,3.53-6.45-.39-4.93,1.02-7.6-5.27-2.13-5.01-4.15-10.07-6.22-15.11-.28.02-.57.04-.85.06-.06.92-.17,1.85-.17,2.77,0,6.55-.02,13.1.09,19.64.03,2.03-.58,2.78-2.71,2.76-8.16-.1-6.55.83-6.63-6.36-.11-10.03.04-20.07-.07-30.1-.02-2.25.67-3.02,2.89-2.87,3.35.22,7.43-.88,9.86.68,2.28,1.46,2.88,5.61,4.13,8.61,2.08,5.04,4.09,10.1,6.32,15.65.63-.91,1.04-1.32,1.24-1.81,2.87-7.02,5.65-14.09,8.65-21.06.4-.93,1.86-1.85,2.91-1.96,2.72-.28,5.49,0,8.24-.13,1.98-.09,2.82.43,2.8,2.63-.1,11.3-.1,22.6-.01,33.9.02,2.2-.68,2.9-2.91,2.9-6.96,0-6.96.09-6.96-6.71,0-6.01,0-12.01,0-18.02-.3-.08-.59-.15-.89-.23Z"/>
  <path class="cls-1" d="M328.38,39.32c-8.54-8.54-17.29-17.3-25.96-25.98,4.06-4.12,8.32-8.44,13.14-13.33,4.1,4.49,8.2,8.97,12.92,14.12,3.99-4.26,7.57-7.94,10.96-11.8,1.55-1.76,2.58-1.92,4.29-.16,3.65,3.77,7.51,7.33,11.21,10.9-9.19,9.08-17.94,17.73-26.56,26.24Z"/>
  <path class="cls-1" d="M554.76,195.18c2.92,0,5.33-.15,7.7.1.59.06,1.48,1.4,1.49,2.15.1,11.51.03,23.01.1,34.52.01,2.01-.87,2.43-2.68,2.5-9.71.38-9.71.42-14.37-8.18-3.07-5.66-6.14-11.31-9.22-16.95-.34-.62-.74-1.19-1.65-2.63-.15,1.77-.28,2.62-.28,3.48-.02,7.07-.09,14.15.03,21.22.04,2.34-.68,3.11-3.06,3.08-6.02-.06-6.01.05-6.01-6.04,0-10.13.03-20.27-.08-30.4-.02-2.15.49-2.94,2.8-2.95,9.8-.05,9.78-.11,14.45,8.63,3.32,6.22,6.73,12.39,10.8,18.52v-27.05Z"/>
  <path class="cls-1" d="M631.85,212.33c-2.88,0-5.8.09-8.71-.08-.52-.03-1.15-1.04-1.45-1.72-2.19-4.99-6.74-7.57-11.62-6.51-5.02,1.09-7.85,5.02-7.92,10.7-.05,4.6,1.36,8.5,5.81,10.26,3.89,1.53,7.91,1.36,11.16-1.85.88-.87,1.87-1.95,2.09-3.07.54-2.74,2.17-3.16,4.54-2.96,1.97.16,3.96.03,5.88.03,1.3,8.28-6.84,16.83-16.63,17.88-12.51,1.33-22.2-6.39-23.12-17.88-1.19-14.78,9.66-22.91,20.45-22.69,10.78.22,19.96,8.18,19.51,17.89Z"/>
  <path class="cls-1" d="M735.88,234.44c-3.15,0-5.97.2-8.74-.12-.83-.1-1.79-1.58-2.15-2.61-1.93-5.5-.83-4.73-6.74-4.79-1.27-.01-2.55.15-3.8-.03-4.59-.65-8.06.2-8.72,5.68-.08.7-1.33,1.71-2.1,1.78-2.6.22-5.23.09-8.37.09.38-1.37.58-2.34.91-3.27,3.84-10.82,7.75-21.62,11.5-32.48.92-2.66,2.18-3.7,5.18-3.64,9.45.18,9.43.03,12.51,8.84,3.23,9.24,6.53,18.46,9.78,27.69.27.76.41,1.57.74,2.87ZM716.04,205.03c-.36.03-.71.06-1.07.09-1.41,4.37-2.82,8.74-4.28,13.25h9.78c-1.57-4.73-3-9.04-4.43-13.34Z"/>
  <path class="cls-1" d="M482.09,195.13c2.61,0,4.92.1,7.21-.03,1.97-.11,2.59.69,2.56,2.58-.08,5.7-.05,11.41,0,17.11.01,1.68.06,3.4.37,5.04.7,3.63,3.17,5.67,6.83,5.87,4.32.24,6.9-1.28,8.01-5.11.52-1.79.61-3.74.63-5.62.07-6.43.03-12.86.03-19.83,2.83,0,5.42-.09,8.01.07.54.03,1.47,1.01,1.46,1.54-.18,8.74.31,17.6-.98,26.19-1.25,8.29-8.25,12.53-17.12,12.27-10.17-.3-16.8-6.85-16.98-17.03-.13-7.58-.03-15.16-.03-23.06Z"/>
  <path class="cls-1" d="M659.99,214.73c0-5.49.09-10.98-.04-16.46-.05-2.25.46-3.29,2.96-3.17,6.63.32,13.32.04,19.89.78,6.53.74,10.55,5.9,10.59,12.23.04,6.4-3.76,11.38-10.21,12.59-3.39.64-6.94.65-10.4.53-2.61-.09-3.34.83-3.14,3.28.19,2.31.04,4.64.03,6.96,0,.63.04,1.79-.09,1.82-2.55.46-5.12.96-7.7,1.01-.61.01-1.76-1.58-1.78-2.46-.16-5.69-.08-11.4-.08-17.1ZM674.96,212.78c1.37,0,2.75.12,4.1-.03,2.6-.27,4.35-1.54,4.37-4.4.02-2.62-1.7-4.31-4.66-4.46-2.31-.12-4.65-.22-6.94.02-.78.08-1.95,1.18-2.06,1.94-.98,6.58-.59,7.02,5.19,6.93Z"/>
  <path class="cls-1" d="M216.83,214.3c3.5,2.28,6.12,5.08,6.03,9.63-.11,5.42-3.68,9.69-9.71,10.17-6.51.52-13.09.31-19.63.24-.61,0-1.72-1.25-1.73-1.92-.12-11.82-.12-23.64-.03-35.45,0-.6,1.03-1.72,1.58-1.71,6.22.02,12.45,0,18.65.41,4.43.3,7.86,2.65,9.13,7.11,1.23,4.29-.11,7.89-3.77,10.57-.22.16-.29.52-.52.97ZM204.26,230.63c2.63-.12,5.28-.07,7.88-.38,3.82-.46,5.98-2.66,6.25-5.97.3-3.68-1.33-6.33-5.26-7.05-3.68-.67-7.53-.67-11.3-.66-6.64.01-5.82-1.15-5.85,5.8-.03,8.16,0,8.16,8.27,8.27ZM196.01,199.46c0,3.99-.05,7.96.06,11.94.01.48.88,1.35,1.34,1.34,4.84-.1,9.72-.03,14.51-.63,3.45-.43,5.33-3.34,5.17-6.56-.16-3.09-2.43-5.79-5.88-6.01-4.91-.31-9.86-.08-15.2-.08Z"/>
  <path class="cls-1" d="M753.31,225.51c5.37,0,10.22.08,15.07-.04,2.09-.05,2.99.43,2.97,2.78-.05,6.17.07,6.17-6.18,6.17-6.24,0-12.48-.07-18.71.05-2.21.04-2.95-.69-2.94-2.9.06-11.3.04-22.6-.06-33.9-.02-1.92.56-2.55,2.51-2.61,7.34-.2,7.33-.27,7.33,6.96,0,7.69,0,15.37,0,23.47Z"/>
  <path class="cls-1" d="M132.12,227.92c-7.45,7.72-17.09,9.54-25.73,4.63-7.86-4.47-11.43-15.61-8.05-25.11,3.25-9.13,12.28-14.29,22.24-12.72,7.68,1.21,13.82,6.87,13.97,13.83-1.57-.74-3.51-1.03-3.87-1.94-3.72-9.39-17.96-10.33-24.39-4.05-4.54,4.43-5.6,10.1-4.48,16.09,1.19,6.35,4.92,10.61,11.38,12.2,7.68,1.89,15.92-2.59,17.94-9.79.19-.68.17-1.41.32-2.68-3.57,0-6.92-.11-10.25.04-2.5.11-3.67-.61-2.7-3.77h17.31c0,4.2,0,8.17,0,12.13,0,1.9.17,3.82-.08,5.69-.09.72-1.13,1.31-1.73,1.96-.63-.64-1.65-1.21-1.79-1.95-.28-1.47-.08-3.04-.08-4.56Z"/>
  <path class="cls-1" d="M321.59,142.55h14.26c.15,2.05.4,3.91.42,5.78.06,6.33.03,12.66.04,18.98,0,3.33-.69,6.84,2.5,9.68h-19.71c3.58-3.62,2.4-7.97,2.46-12.06.12-7.37.03-14.74.03-22.39Z"/>
  <path class="cls-1" d="M351.41,229.16v-33.77h4.03v38.51c-4.87,1.22-5.42.99-7.95-2.82-6.43-9.67-12.89-19.31-19.34-28.96-.22-.33-.52-.61-1.19-1.38-.14,1.23-.29,1.98-.29,2.73-.02,9.29,0,18.58-.03,27.87,0,1.37.51,3.06-1.96,3.12-2.6.06-2.21-1.63-2.21-3.19,0-10.87-.04-21.75.05-32.62,0-1.17.65-3.28,1.14-3.33,2.02-.17,4.19-.96,5.86,1.63,6.53,10.1,13.32,20.04,20.02,30.03.37.55.87,1.02,1.86,2.17Z"/>
  <path class="cls-1" d="M301.42,217.91c4.12,5.55,7.92,10.66,11.89,16-3.03,1.08-4.95.49-6.57-1.86-2.64-3.82-5.56-7.44-8.21-11.26-1.59-2.29-3.46-3.42-6.32-3.04-1.74.23-3.54.04-5.74.04,0,4.64-.16,8.95.05,13.24.15,3.09-.87,4.12-4.06,3.02v-39.35c7.74.48,15.54.49,23.18,1.61,5.15.76,7.88,5.37,7.77,10.5-.11,5.08-3.36,9.02-8.6,10.41-.9.24-1.83.37-3.4.69ZM294.98,199.31c0-.05,0-.1,0-.15-2.11,0-4.25-.16-6.33.09-.77.09-1.99,1.12-2.03,1.78-.21,3.68-.2,7.39-.07,11.08.02.66.94,1.85,1.43,1.84,5.16-.07,10.37.05,15.45-.66,4.01-.56,5.93-3.77,5.6-7.57-.3-3.45-2.86-6.01-6.76-6.37-2.41-.22-4.86-.04-7.29-.04Z"/>
  <path class="cls-1" d="M403.7,214.92c-.03,11.97-8.02,20.2-19.6,20.21-11.55,0-19.7-8.34-19.7-20.19,0-12.09,8.17-20.48,19.85-20.39,11.52.09,19.48,8.43,19.45,20.38ZM399.31,215c.02-9.94-5.9-16.3-15.28-16.41-8.97-.1-15.21,6.53-15.21,16.18,0,9.9,6.09,16.43,15.31,16.46,9.01.02,15.16-6.56,15.18-16.23Z"/>
  <path class="cls-1" d="M182.83,214.96c-.02,12.04-7.9,20.15-19.6,20.16-11.47.01-19.63-8.39-19.64-20.23-.02-11.77,8.07-20.31,19.23-20.31,12.17,0,20.03,8.01,20.01,20.38ZM148.19,215.21c-.23,3.92.8,7.72,3.56,10.91,4.18,4.83,9.59,5.94,15.54,4.56,6.07-1.41,9.82-5.54,10.86-11.49,1.13-6.43.48-12.77-5.12-17.31-5.11-4.13-11.05-4.49-16.72-1.82-6.04,2.84-8.4,8.3-8.12,15.15Z"/>
  <path class="cls-1" d="M733.71,270.42v6.78c-1.2.07-2.23.17-3.26.17-17.97,0-35.94-.02-53.9-.03q-4.47,0-4.41-4.41c.01-.73.06-1.46.11-2.52h61.46Z"/>
  <path class="cls-1" d="M199.82,270.37v6.72h-61.41v-6.72h61.41Z"/>
  <path class="cls-1" d="M250.43,199.21c0,4.07-.15,7.85.14,11.61.05.65,1.9,1.64,2.94,1.67,6.01.16,12.02.08,18.08.08.83,2.54.67,3.99-2.45,3.91-5.39-.14-10.79.01-16.18-.07-1.86-.03-2.69.47-2.58,2.5.16,2.84.17,5.71,0,8.55-.14,2.33.58,3.16,3.02,3.09,5.81-.16,11.63-.03,17.45-.03,1.39,0,2.83-.21,2.84,1.94,0,2.14-1.41,1.96-2.81,1.96-7.3,0-14.6-.03-21.89.08-2.04.03-2.79-.56-2.78-2.67.08-11.41.08-22.82,0-34.23-.02-2.03.77-2.51,2.61-2.49,7.4.06,14.81.03,22.21,0,1.44,0,2.8.27,2.3,2.01-.25.85-1.51,1.99-2.33,2.01-6.65.16-13.3.09-20.54.09Z"/>
  <path class="cls-1" d="M583.57,195.11c0,1.46,0,2.49,0,3.52-.02,10.97-.1,21.94-.03,32.92.01,2.16-.56,2.95-2.84,2.93-6.89-.05-6.9.05-6.89-6.8,0-9.92.09-19.84-.01-29.75-.02-2.27.74-3,2.92-2.85,2.17.15,4.37.03,6.85.03Z"/>
  <path class="cls-1" d="M640.62,195.35c.85-.07,1.67-.19,2.48-.2,2.19-.03,4.38,0,6.73,0,.13,1,.29,1.7.29,2.4,0,11.28-.05,22.55.03,33.83.02,2.27-.55,3.33-3.01,3.11-2.08-.18-4.19-.04-6.54-.04v-39.09Z"/>
  <path class="cls-1" d="M336.4,126.6h-16.26c2.05-3.66,1.36-7.54.84-11.19-.43-2.99-.13-5.41,2.45-7.2,4.37-3.04,10.78-1.04,12.59,3.97.23.62.14,1.39.08,2.08-.29,3.57-.64,7.14-.87,10.72-.03.39.58.82,1.17,1.62Z"/>
  <path class="cls-1" d="M294.51,273.82c-.88,3.42-1.29,7.16-2.81,10.38-2.26,4.79-9.88,4.98-12.15.22-3.41-7.15-3.3-14.69.02-21.97,1.16-2.55,3.56-3.5,6.3-3.4,2.86.1,5.35,1.22,6.23,4.02,1.06,3.36,1.57,6.89,2.41,10.74ZM289.79,273.68c-.31-2.62-.28-5.23-1.04-7.58-.42-1.28-2.12-2.79-3.37-2.92-.91-.1-2.88,1.85-2.94,2.96-.27,5-.19,10.04.16,15.03.07.99,1.98,2.69,2.87,2.58,1.2-.14,2.82-1.52,3.2-2.71.76-2.35.8-4.94,1.13-7.37Z"/>
  <path class="cls-1" d="M528.19,273.15c.55-3,.82-6.28,1.81-9.33,1.11-3.41,3.71-4.86,7.02-4.75,3.49.11,5.83,1.96,6.77,5.17,1.74,5.97,1.69,12.08.1,18.06-.96,3.6-3.57,5.36-6.9,5.41-3.71.05-6.12-1.47-7.24-5.31-.84-2.88-1.03-5.96-1.56-9.26ZM541.01,273.45c-.34-2.54-.43-5.22-1.17-7.71-.33-1.12-1.94-2.52-3.01-2.56-1.02-.04-2.94,1.49-3,2.41-.32,5.2-.35,10.44-.08,15.64.05.96,2.03,2.64,2.94,2.54,1.2-.14,2.82-1.54,3.2-2.74.75-2.37.78-4.97,1.12-7.59Z"/>
  <path class="cls-1" d="M298.22,174.71c2.77-1.36,2.75-3.49,2.71-5.81-.1-7.18-.02-14.35-.09-21.53-.01-1.15-.46-2.3-.73-3.55,1.73-.12,3.74-.18,5.72-.42,2.3-.28,3.23.93,3.05,2.92-.46,5.39-1.21,10.76-1.64,16.16-.26,3.36-.27,6.75-.13,10.12.09,2.33-.82,3.01-2.98,2.7-1.96-.28-3.94-.4-5.91-.59Z"/>
  <path class="cls-1" d="M358.55,174.82c-2.79.19-5.58.38-8.17.56-.33-.59-.5-.76-.51-.95-.65-9.06-1.34-18.11-1.88-27.18-.22-3.68.58-4.24,4.25-3.81,1.57.18,3.14.28,4.3.38-.21,1.38-.55,2.68-.57,3.99-.11,6.76-.06,13.52-.23,20.27-.07,2.64-.07,5.05,3.24,6.04-.14.23-.27.46-.41.69Z"/>
  <path class="cls-1" d="M336.6,283.34c2.42,0,4.26.07,6.1-.02,1.39-.07,2.53-.11,2.62,1.77.08,1.78-.87,2.12-2.36,2.1-3.17-.04-6.33.02-9.5-.02-2.78-.03-3.5-1.06-2.13-3.45,1.41-2.46,3.37-4.61,4.75-7.09,1.51-2.73,2.97-5.59,3.76-8.57.35-1.34-.65-3.44-1.7-4.57-.44-.47-2.6.77-4.02,1.04-.86.17-2.13.32-2.57-.15-.44-.46-.41-1.94.02-2.54,1.86-2.58,4.54-3.25,7.59-2.63,2.99.61,4.39,2.7,4.98,5.48.9,4.22-.6,7.9-2.74,11.38-1.41,2.29-2.96,4.5-4.79,7.27Z"/>
  <path class="cls-1" d="M581.38,264.09c2.54-4.37,5.58-5.81,9.08-4.87,3.13.83,4.67,3.24,4.92,7.23.28,4.38-1.7,7.94-3.92,11.42-1.06,1.66-2.24,3.24-3.75,5.4,2.56,0,4.51-.19,6.4.09.82.12,1.51,1.17,2.26,1.8-.71.67-1.38,1.88-2.13,1.93-3.36.21-6.75.03-10.12.1-2.58.06-2.64-1.51-1.82-3.08,1.12-2.13,2.83-3.94,3.98-6.06,1.73-3.2,3.48-6.45,4.61-9.88.43-1.32-.44-3.55-1.48-4.64-.49-.51-2.76.9-4.28,1.09-1.11.14-2.3-.3-3.75-.53Z"/>
  <path class="cls-1" d="M483.12,283.31c2.64,0,4.63-.16,6.57.08.77.09,1.44,1.05,2.16,1.61-.57.71-1.11,2.02-1.71,2.04-4.19.18-8.39.1-13.47.1.94-2.17,1.41-3.72,2.24-5.05,1.79-2.86,4.03-5.47,5.57-8.45,1.13-2.17,1.71-4.74,1.97-7.19.11-1.01-1.03-2.64-2.03-3.14-.81-.41-2.52.14-3.35.83-1.12.94-2.13,1.82-3.02.3-.42-.72-.11-2.4.49-3.09,2.07-2.36,4.86-2.95,7.81-1.97,2.83.94,4.02,3.22,4.34,6.06.41,3.73-.56,7.12-2.53,10.25-1.51,2.38-3.11,4.71-5.04,7.62Z"/>
  <path class="cls-1" d="M232.04,283.31c2.77,0,4.68-.16,6.54.08.72.09,1.32,1.11,1.98,1.7-.67.69-1.3,1.93-2.01,1.98-3.37.21-6.76.04-10.15.1-2.21.04-2.62-1.09-1.89-2.81.53-1.24,1.39-2.34,2.08-3.52,2.13-3.62,4.33-7.21,6.33-10.9.51-.95.72-2.33.47-3.37-.29-1.21-1.01-2.81-1.97-3.21-.94-.39-2.45.45-3.64.93-.4.16-.58.86-1.05,1.63-1.22-1.07-2.02-1.77-2.78-2.44,2.27-3.85,5.2-5.19,8.85-4.24,3.02.79,4.92,3.65,4.95,7.64.04,4.46-2.2,8.06-4.53,11.62-.99,1.52-2,3.02-3.19,4.81Z"/>
  <path class="cls-1" d="M390.67,260.25c-1.65,5.3-3.33,10.67-5.12,16.41h4.75c0-1.38-.23-2.77.08-4.03.2-.83,1.19-1.46,1.83-2.18.71.67,1.9,1.25,2.03,2.02.34,1.94-.59,4.28,2.33,5.12.13.04-.1,2.78-.48,2.87-2.44.56-1.68,2.38-1.75,3.81-.15,3.31-.38,3.5-4.07,2.43v-6.04c-2.3,0-4.37-.1-6.43.03-1.99.13-2.89-.86-2.57-2.6.59-3.19,1.4-6.34,2.27-9.46.65-2.33,1.66-4.56,2.28-6.9.75-2.86,2.2-3.28,4.85-1.5Z"/>
  <path class="cls-1" d="M235.42,214.76c0,5.7-.02,11.39.01,17.09,0,1.53-.08,2.64-2.13,2.64-2,0-2.22-1.05-2.22-2.6.01-11.5.02-23-.03-34.5,0-1.58.48-2.32,2.17-2.3,1.62.02,2.24.62,2.23,2.26-.06,5.8-.02,11.61-.02,17.41h0Z"/>
  <path class="cls-1" d="M382.87,163.03c-2.25.27-4.5.61-6.76.74-.53.03-1.53-.6-1.6-1.04-.71-4.39-3.19-8.47-2.09-13.18.35-1.51.23-3.17.06-4.73-.26-2.44.79-3.05,3.07-3.03,4.29.04,4.29-.08,4.33,4.28.04,3.9.16,7.81.07,11.71-.05,2.28.03,4.27,3.19,4.46-.09.26-.19.53-.28.79Z"/>
  <path class="cls-1" d="M273.55,162.27c3.11-.27,3.21-2.24,3.16-4.51-.09-4.1.19-8.22-.04-12.31-.17-2.94.8-4.09,3.71-3.66,1.03.15,2.08.12,3.79.2,0,5.12.27,10.15-.13,15.13-.17,2.13-1.75,4.15-2.92,6.72-2-.22-4.62-.5-7.23-.79l-.33-.78Z"/>
  <path class="cls-1" d="M641.78,263.65c-2.7,0-4.97-.03-7.24.01-1.43.03-2.77-.23-2.28-1.99.21-.74,1.43-1.67,2.23-1.71,3.77-.18,7.55-.08,11.92-.08-.38,2.18-.46,4.05-1.04,5.77-2.18,6.48-4.54,12.91-6.81,19.37-.52,1.49-.76,3.29-3.1,2.42-2.2-.82-1.21-2.32-.74-3.66,1.99-5.55,4.03-11.09,6.02-16.64.34-.95.57-1.94,1.02-3.5Z"/>
  <path class="cls-1" d="M355.08,116.12c.21,4.11.42,8.05.62,12-4.15.2-6.57-1.97-6.66-6.15-.05-2.22-.38-4.5.04-6.63.35-1.78,1.23-4.3,2.53-4.81,1.25-.49,3.38,1.13,5.05,1.96.51.25.97.9,1.14,1.47.27.91.29,1.9.41,2.86-.88-.2-1.77-.39-3.14-.7Z"/>
  <path class="cls-1" d="M300.87,116.04c-.85.41-1.6.78-2.49,1.21-1.38-2.41.3-3.9,1.53-4.99,1.22-1.08,3.19-2.14,4.6-1.9,1.12.19,2.66,2.35,2.68,3.67.07,3.7-.22,7.48-.99,11.1-.54,2.53-2.97,3.29-5.33,3.21v-12.3Z"/>
  <path class="cls-1" d="M278.38,120.66c-2.69-1.12-2.95-2.57-.91-4.5,2.07-1.97,6.59-1.74,8.31.56.88,1.18,2.23,2.59-.35,3.76-.56.25-.61,1.79-.74,2.76-.18,1.34-.23,2.69-.34,4.15h-6.34c.13-2.37.24-4.44.37-6.75Z"/>
  <path class="cls-1" d="M380.59,119.67c-.73.26-1.47.54-2.34.85v6.84c-1.02.1-2.02.15-3,.3-2.41.37-3.47-.47-3.38-3.05.06-1.69.82-3.86-1.67-4.9-.13-.05.28-2.62,1.06-3.41,3.14-3.18,8.07-1.42,9.33,3.38Z"/>
  <path class="cls-1" d="M392.38,142.72c0,4.7-.03,9.41,0,14.11.04,3.97.04,3.99-4.65,3.81,0-5.53-.16-11.09.17-16.62.05-.84,2.41-1.54,3.7-2.3.26.33.51.67.77,1Z"/>
  <path class="cls-1" d="M264.11,142.5h4.44v18.05c-4.36.31-4.46.21-4.45-3.84.01-4.63,0-9.27,0-14.22Z"/>
  <path class="cls-1" d="M360.27,88.13c-10.09-4.71-20.73-6.72-31.79-6.54-11.02.17-21.73,2.04-31.91,6.53,11.96-9.54,50.85-10.62,63.7.02Z"/>
  <path class="cls-1" d="M297.73,100.17c12.34-11.24,48.86-10.53,60.85-.21-20.75-9.11-40.85-9.64-60.85.21Z"/>
  <path class="cls-1" d="M437.57,274.93c.84,0,1.75-.2,2.49.06.62.22,1.41.99,1.43,1.54.02.51-.83,1.4-1.4,1.5-1.33.23-2.75.27-4.07,0-.9-.18-1.67-1-2.5-1.53.83-.53,1.62-1.14,2.5-1.55.43-.2,1.03-.03,1.56-.03v.02Z"/>
  <path class="cls-1" d="M328.39,65.26c-2.64.01-4.35-1.69-4.35-4.34,0-2.47,1.63-4.15,4.11-4.23,2.72-.09,4.39,1.48,4.43,4.16.04,2.73-1.54,4.4-4.19,4.41Z"/>
</svg>