<?xml version="1.0" encoding="UTF-8"?>
<svg id="Capa_1" data-name="Capa 1" xmlns="http://www.w3.org/2000/svg" viewBox="0 0 200.56 113.96">
  <defs>
    <style>
      .cls-1, .cls-2, .cls-3, .cls-4 {
        stroke-width: 0px;
      }

      .cls-1, .cls-2, .cls-3, .cls-5 {
        fill-rule: evenodd;
      }

      .cls-1, .cls-4 {
        fill: #fff;
      }

      .cls-2 {
        fill: #424146;
      }

      .cls-3 {
        fill: #424147;
      }

      .cls-5 {
        fill: #1d1d1b;
        stroke: #fff;
        stroke-miterlimit: 10;
      }
    </style>
  </defs>
  <g>
    <path class="cls-1" d="M165.64,8.74c-2.79.03-5.58,0-8.38-.09-.03-.06-.06-.12-.09-.18-.06-.05-.09-.13-.09-.23.76-2.76,1.55-5.5,2.37-8.24h-16.48c-.83,2.82-1.65,5.64-2.46,8.47,0,.09-.02.17-.09.23-27.66.08-55.31.06-82.94-.05-7.58,1.13-13.61,4.8-18.07,11.02-2.65,3.98-4.15,8.35-4.51,13.11v2.91c.26,4.03,1.35,7.82,3.28,11.38,4.76,7.98,11.8,12.4,21.12,13.25,8.18.25,15.09-2.56,20.71-8.42.59.47,1.12,1,1.59,1.59,5.64,5.02,12.25,7.28,19.85,6.78.5-.11,1.01-.17,1.55-.18,2.96-.48,5.77-1.42,8.42-2.82-.26.94-.55,1.88-.86,2.82v.27h10.93c-.02-.12,0-.21.09-.27,1.9-6.78,3.84-13.55,5.83-20.3v-.27h-18.85c-2.44,4-6.02,5.8-10.74,5.42-3.88-.67-6.66-2.78-8.33-6.33-1.89-5.52-.48-9.97,4.23-13.34,3.65-1.99,7.29-1.99,10.93,0,10.32.05,20.64.06,30.96.05-.03.28-.07.55-.14.82-3.27,11.29-6.53,22.58-9.79,33.87v.36c5.47.03,10.93,0,16.39-.09,3.32-11.59,6.66-23.19,10.02-34.78,3.03-.18,6.1-.24,9.2-.18,1.5-5.37,2.99-10.74,4.46-16.12-.07-.14-.1-.29-.09-.46ZM73.59,38.51c-1-.02-2,0-3,.05-1.55,3.39-4.16,5.48-7.83,6.28-5.06.64-8.87-1.22-11.43-5.6-2.09-4.94-1.23-9.27,2.59-12.97,3.55-2.76,7.41-3.25,11.56-1.46,2.3,1.15,3.99,2.89,5.05,5.24.04.12.06.24.05.36h3c-.05.3-.08.6-.09.91-.12.47-.18.95-.18,1.46-.05,1.92.05,3.83.27,5.74Z"/>
    <g>
      <path class="cls-5" d="M72.68,46.53c-.38.33-.74.68-1.09,1.05-5.4,4.1-11.29,4.95-17.66,2.55-4.77-2.19-7.97-5.79-9.61-10.79-1.36-4.86-.78-9.48,1.73-13.84,3.18-4.94,7.72-7.66,13.61-8.15,4.58-.05,9.17-.06,13.75-.05v-1.55c-4.81-.11-9.64-.12-14.48-.05-.26.02-.5.06-.73.14-3.23.39-6.14,1.55-8.74,3.51-1.01.82-1.96,1.69-2.87,2.59-4.69,5.75-5.81,12.16-3.37,19.21,2.58,6.19,7.15,10.06,13.7,11.61,6.5,1.12,12.13-.56,16.89-5.05-.25-.48-.63-.88-1.14-1.18Z"/>
      <path class="cls-5" d="M161.68,15.48c-3.61.06-7.2.12-10.79.18v1.64c3.6.03,7.18,0,10.74-.09.1-.56.12-1.14.05-1.73Z"/>
      <path class="cls-5" d="M114.1,17.03v.27h14.48v-1.64h-14.48v1.37Z"/>
      <path class="cls-5" d="M77.32,17.12v.18c-.01.07,0,.13.05.18.12-.12.24-.12.36,0,4.7-.06,9.39-.12,14.07-.18v-1.64h-14.48v1.46Z"/>
      <path class="cls-5" d="M95.71,17.3c.06.07.14.13.23.18,4.76-.06,9.51-.12,14.25-.18v-1.64h-14.48v1.64Z"/>
      <path class="cls-5" d="M146.42,15.57h-14.02v1.82c4.72.03,9.42,0,14.11-.09h.46v-1.64c-.13-.09-.28-.12-.46-.09-.03-.36-.06-.36-.09,0Z"/>
    </g>
    <path class="cls-5" d="M161.27,25.31c-3.06.06-6.12.12-9.2.18,3.03-.18,6.1-.24,9.2-.18Z"/>
    <path class="cls-5" d="M108.55,39.51c6.3-.09,12.61-.12,18.94-.09.02.15,0,.27-.09.36v-.27h-18.85Z"/>
    <path class="cls-3" d="M125.67,60v.36c5.47.03,10.93,0,16.39-.09-5.46.18-10.95.24-16.48.18-.03-.17,0-.33.09-.46Z"/>
    <path class="cls-2" d="M110.55,60.09v.27h10.93c-3.66.09-7.33.12-11.02.09v-.27c0-.06.03-.09.09-.09Z"/>
  </g>
  <g>
    <path class="cls-4" d="M15.44,79.23c0-3.97,3.04-6.84,7.12-6.84,2.17,0,4.03.78,5.26,2.22l-1.6,1.5c-.97-1.04-2.17-1.56-3.55-1.56-2.75,0-4.75,1.94-4.75,4.67s2,4.67,4.75,4.67c1.39,0,2.58-.51,3.55-1.58l1.6,1.52c-1.23,1.44-3.1,2.22-5.28,2.22-4.07,0-7.1-2.87-7.1-6.84Z"/>
    <path class="cls-4" d="M28.96,79.23c0-3.93,3.04-6.84,7.16-6.84s7.16,2.89,7.16,6.84-3.04,6.84-7.16,6.84-7.16-2.91-7.16-6.84ZM40.8,79.23c0-2.72-1.99-4.67-4.67-4.67s-4.67,1.96-4.67,4.67,2,4.67,4.67,4.67,4.67-1.96,4.67-4.67Z"/>
    <path class="cls-4" d="M57.73,72.59v13.3h-2.03l-7.33-9v9h-2.45v-13.3h2.03l7.33,9v-9h2.45Z"/>
    <path class="cls-4" d="M60.18,84.48l.85-1.92c1.06.85,2.75,1.46,4.39,1.46,2.07,0,2.94-.74,2.94-1.73,0-2.87-7.9-.99-7.9-5.93,0-2.15,1.71-3.97,5.36-3.97,1.6,0,3.27.42,4.43,1.18l-.78,1.92c-1.2-.7-2.51-1.04-3.67-1.04-2.05,0-2.89.8-2.89,1.8,0,2.83,7.88.99,7.88,5.87,0,2.13-1.73,3.95-5.38,3.95-2.07,0-4.14-.65-5.24-1.6Z"/>
    <path class="cls-4" d="M75.76,74.68h-4.41v-2.09h11.28v2.09h-4.41v11.21h-2.47v-11.21Z"/>
    <path class="cls-4" d="M93.2,85.88l-2.72-3.89c-.17.02-.34.02-.51.02h-3v3.88h-2.47v-13.3h5.47c3.5,0,5.66,1.79,5.66,4.73,0,2.01-1.03,3.5-2.83,4.2l3.06,4.37h-2.66ZM89.86,74.68h-2.89v5.3h2.89c2.17,0,3.29-.99,3.29-2.66s-1.12-2.64-3.29-2.64Z"/>
    <path class="cls-4" d="M98.28,80.09v-7.5h2.47v7.41c0,2.74,1.23,3.91,3.38,3.91s3.36-1.18,3.36-3.91v-7.41h2.43v7.5c0,3.88-2.18,5.98-5.81,5.98s-5.83-2.11-5.83-5.98Z"/>
    <path class="cls-4" d="M112.43,79.23c0-3.97,3.04-6.84,7.12-6.84,2.17,0,4.03.78,5.26,2.22l-1.6,1.5c-.97-1.04-2.17-1.56-3.55-1.56-2.75,0-4.75,1.94-4.75,4.67s2,4.67,4.75,4.67c1.39,0,2.58-.51,3.55-1.58l1.6,1.52c-1.23,1.44-3.1,2.22-5.28,2.22-4.07,0-7.1-2.87-7.1-6.84Z"/>
    <path class="cls-4" d="M129.74,74.68h-4.41v-2.09h11.28v2.09h-4.41v11.21h-2.47v-11.21Z"/>
    <path class="cls-4" d="M137.34,79.23c0-3.93,3.04-6.84,7.16-6.84s7.16,2.89,7.16,6.84-3.04,6.84-7.16,6.84-7.16-2.91-7.16-6.84ZM149.18,79.23c0-2.72-1.99-4.67-4.67-4.67s-4.67,1.96-4.67,4.67,2,4.67,4.67,4.67,4.67-1.96,4.67-4.67Z"/>
    <path class="cls-4" d="M162.99,85.88l-2.72-3.89c-.17.02-.34.02-.51.02h-3v3.88h-2.47v-13.3h5.47c3.5,0,5.66,1.79,5.66,4.73,0,2.01-1.03,3.5-2.83,4.2l3.06,4.37h-2.66ZM159.64,74.68h-2.89v5.3h2.89c2.17,0,3.29-.99,3.29-2.66s-1.12-2.64-3.29-2.64Z"/>
    <path class="cls-4" d="M176.8,82.81h-6.65l-1.31,3.08h-2.54l5.98-13.3h2.43l6,13.3h-2.58l-1.33-3.08ZM175.98,80.87l-2.51-5.81-2.49,5.81h5Z"/>
    <path class="cls-4" d="M10.87,102.12h2.34v5.3c-1.39,1.12-3.32,1.69-5.21,1.69-4.12,0-7.16-2.87-7.16-6.84s3.04-6.84,7.2-6.84c2.22,0,4.08.74,5.34,2.17l-1.56,1.52c-1.04-1.04-2.24-1.52-3.67-1.52-2.83,0-4.83,1.92-4.83,4.67s2,4.67,4.81,4.67c.95,0,1.88-.19,2.74-.68v-4.14Z"/>
    <path class="cls-4" d="M25.15,108.92l-2.72-3.89c-.17.02-.34.02-.51.02h-3v3.88h-2.47v-13.3h5.47c3.5,0,5.66,1.79,5.66,4.73,0,2.01-1.03,3.5-2.83,4.2l3.06,4.37h-2.66ZM21.81,97.71h-2.89v5.3h2.89c2.17,0,3.29-.99,3.29-2.66s-1.12-2.64-3.29-2.64Z"/>
    <path class="cls-4" d="M30.23,103.13v-7.5h2.47v7.41c0,2.74,1.23,3.91,3.38,3.91s3.36-1.18,3.36-3.91v-7.41h2.43v7.5c0,3.88-2.18,5.98-5.81,5.98s-5.83-2.11-5.83-5.98Z"/>
    <path class="cls-4" d="M56.46,100.35c0,2.92-2.17,4.73-5.66,4.73h-3v3.84h-2.47v-13.3h5.47c3.5,0,5.66,1.79,5.66,4.73ZM53.98,100.35c0-1.67-1.12-2.64-3.29-2.64h-2.89v5.28h2.89c2.17,0,3.29-.97,3.29-2.64Z"/>
    <path class="cls-4" d="M58.18,102.27c0-3.93,3.04-6.84,7.16-6.84s7.16,2.89,7.16,6.84-3.04,6.84-7.16,6.84-7.16-2.91-7.16-6.84ZM70.01,102.27c0-2.72-1.99-4.67-4.67-4.67s-4.67,1.96-4.67,4.67,2,4.67,4.67,4.67,4.67-1.96,4.67-4.67Z"/>
    <path class="cls-4" d="M83.07,97.71h-4.41v-2.09h11.28v2.09h-4.41v11.21h-2.47v-11.21Z"/>
    <path class="cls-4" d="M99.77,105.84h-6.65l-1.31,3.08h-2.54l5.98-13.3h2.43l6,13.3h-2.58l-1.33-3.08ZM98.95,103.91l-2.51-5.81-2.49,5.81h5Z"/>
    <path class="cls-4" d="M116.5,100.35c0,2.92-2.17,4.73-5.66,4.73h-3v3.84h-2.47v-13.3h5.47c3.5,0,5.66,1.79,5.66,4.73ZM114.02,100.35c0-1.67-1.12-2.64-3.29-2.64h-2.89v5.28h2.89c2.17,0,3.29-.97,3.29-2.64Z"/>
    <path class="cls-4" d="M126.94,105.84h-6.65l-1.31,3.08h-2.54l5.98-13.3h2.43l6,13.3h-2.58l-1.33-3.08ZM126.12,103.91l-2.51-5.81-2.49,5.81h5Z"/>
    <path class="cls-4" d="M131.4,102.27c0-3.97,3.04-6.84,7.12-6.84,2.17,0,4.03.78,5.26,2.22l-1.6,1.5c-.97-1.04-2.17-1.56-3.55-1.56-2.75,0-4.75,1.94-4.75,4.67s2,4.67,4.75,4.67c1.39,0,2.58-.51,3.55-1.58l1.6,1.52c-1.23,1.44-3.1,2.22-5.28,2.22-4.07,0-7.1-2.87-7.1-6.84Z"/>
    <path class="cls-4" d="M157.98,95.62v13.3h-2.47v-5.7h-6.88v5.7h-2.47v-13.3h2.47v5.49h6.88v-5.49h2.47Z"/>
    <path class="cls-4" d="M161.44,103.13v-7.5h2.47v7.41c0,2.74,1.23,3.91,3.38,3.91s3.36-1.18,3.36-3.91v-7.41h2.43v7.5c0,3.88-2.18,5.98-5.81,5.98s-5.83-2.11-5.83-5.98Z"/>
    <path class="cls-4" d="M176.55,95.62h2.47v11.21h6.95v2.09h-9.42v-13.3Z"/>
    <path class="cls-4" d="M196.65,105.84h-6.65l-1.31,3.08h-2.54l5.98-13.3h2.43l6,13.3h-2.58l-1.33-3.08ZM195.83,103.91l-2.51-5.81-2.49,5.81h5Z"/>
  </g>
</svg>