<?xml version="1.0" encoding="UTF-8"?>
<svg id="Capa_1" data-name="Capa 1" xmlns="http://www.w3.org/2000/svg" viewBox="0 0 151.76 136.11">
  <defs>
    <style>
      .cls-1 {
        fill: #fff;
        fill-rule: evenodd;
        stroke-width: 0px;
      }
    </style>
  </defs>
  <path class="cls-1" d="M74.45.01c.52-.04,1.01,0,1.49.11-3.48,1.94-6.59,4.38-9.32,7.32-1.3,1.49-2.56,3.02-3.77,4.57l-5.49,8.23c-3.81,5.34-8.27,10.11-13.38,14.29-.39-11.17,3.63-20.37,12.06-27.62C61.43,2.7,67.57.39,74.45.01Z"/>
  <path class="cls-1" d="M85.2,5.16c4.99-.25,9.45,1.15,13.38,4.17,1.26,1.1,2.34,2.34,3.26,3.72,1.18,1.72,1.14,3.39-.11,5.03-.67.86-1.45,1.6-2.34,2.23-2.91,1.95-6.03,3.47-9.38,4.57-2.2.73-4.41,1.42-6.63,2.06-8.24,1.83-16.32,4.19-24.24,7.09-5.04,1.82-9.78,4.21-14.24,7.15-.28-1.1-.47-2.2-.57-3.32,6.34-4.17,12.02-9.12,17.04-14.87,1.91-2.36,3.81-4.73,5.72-7.09,3.15-3.61,6.82-6.52,11.04-8.75,2.27-1.06,4.63-1.73,7.09-2Z"/>
  <path class="cls-1" d="M107.5,22.77c.87,2.2,1.46,4.49,1.77,6.86.73,5.44.17,10.74-1.66,15.9-.15.04-.31.08-.46.11-9.57-1.22-19.18-1.62-28.82-1.2-4.35.2-8.62.88-12.81,2.06-4.16,1.1-7.72,3.17-10.69,6.23-.79,1.01-1.5,2.08-2.12,3.2-3.39-3.65-5.77-7.89-7.15-12.69,4.12-2.3,8.44-4.11,12.98-5.43,8.55-2.43,17.24-4.22,26.07-5.37,5.36-.89,10.54-2.37,15.55-4.46,1.98-.88,3.81-1.98,5.49-3.32.71-.54,1.32-1.17,1.83-1.89Z"/>
  <path class="cls-1" d="M92.97,49.64c4.31-.02,8.61,0,12.92.06-6.17,11.17-15.66,17.02-28.48,17.55-6.19-.04-11.9-1.68-17.15-4.92-.15-.77-.13-1.53.06-2.29.74-1.88,1.98-3.35,3.72-4.4,2.65-1.54,5.47-2.69,8.46-3.43,5.11-1.23,10.3-1.99,15.55-2.29,1.66-.04,3.3-.13,4.92-.29Z"/>
  <path class="cls-1" d="M98.12,68.06c2.55-.1,3.79,1.12,3.72,3.66-.71,2.46-2.29,3.32-4.75,2.57-1.54-1.16-1.94-2.62-1.2-4.4.52-.9,1.26-1.51,2.23-1.83Z"/>
  <path class="cls-1" d="M3.55,68.4h24.13c.09,2.67-1.17,4.29-3.77,4.86-2.36.06-4.73.08-7.09.06-.02,8.81,0,17.61.06,26.42.05.99.11,1.98.17,2.97-1.99.17-3.73-.4-5.2-1.72-.46-.57-.76-1.22-.91-1.94-.13-4.09-.19-8.19-.17-12.29,0-4.48.04-8.96.11-13.44H0c-.02-2.52,1.16-4.16,3.55-4.92Z"/>
  <path class="cls-1" d="M121.11,88.18c2.59-2.21,5.22-4.39,7.89-6.52.13-.14.15-.29.06-.46-.72-1.1-1.75-1.67-3.09-1.72-2.03.17-3.84.87-5.43,2.12-2.1,1.66-4.2,3.32-6.29,4.97-.11-5.05-.15-10.12-.11-15.21,0-.99.03-1.98.11-2.97-.77-.02-1.53.04-2.29.17-2.03.39-3.27,1.59-3.72,3.6-.14,7.43-.24,14.86-.29,22.3-.01,1.49.05,2.98.17,4.46.22,1.1.78,2,1.66,2.69,1.37.81,2.86,1.17,4.46,1.09-.21-2.89-.27-5.79-.17-8.69.87-.71,1.73-1.44,2.57-2.17,1.57,2.27,3.12,4.55,4.63,6.86.77,1.11,1.66,2.12,2.69,3.03,2.16,1.33,4.14,1.1,5.95-.69-2.98-4.26-5.91-8.55-8.81-12.87Z"/>
  <path class="cls-1" d="M105.1,98.36c.11.43.15.89.11,1.37-.11,1.28-.69,2.29-1.72,3.03-2.45.92-4.61.48-6.46-1.32-.5-.7-.88-1.46-1.14-2.29-.13-2.53-.19-5.07-.17-7.6.02-2.31.04-4.61.06-6.92.17-2.42,1.45-3.89,3.83-4.4.76-.14,1.52-.2,2.29-.17-.13,5.83-.15,11.66-.06,17.5.37,1.17,1.15,1.61,2.34,1.32.36-.09.67-.26.91-.51Z"/>
  <path class="cls-1" d="M38.31,80.18h4.46c.47,2.87-.75,4.33-3.66,4.4-1.73.54-2.77,1.71-3.14,3.49-.08.46-.15.91-.23,1.37-.12,4.43-.06,8.85.17,13.27-1.93.16-3.62-.37-5.09-1.6-.63-.81-1.01-1.72-1.14-2.74-.08-3.13-.08-6.25,0-9.38.64-5.16,3.52-8.09,8.63-8.81Z"/>
  <path class="cls-1" d="M65.47,88.18c-1.93-5.88-5.99-8.74-12.18-8.58-1.59.24-3.08.8-4.46,1.66-3.76,2.85-5.41,6.64-4.97,11.38.6,5.02,3.25,8.43,7.95,10.24,3.76.93,7.15.21,10.18-2.17,3.43-3.52,4.6-7.7,3.49-12.52ZM59.41,94.82c-.48,1.96-1.64,3.32-3.49,4.06-2.64.41-4.45-.64-5.43-3.14-.26-.74-.45-1.51-.57-2.29-.08-1.45-.08-2.9,0-4.35.29-1.74,1.07-3.21,2.34-4.4.6-.42,1.25-.7,1.94-.86,2.45,0,4.11,1.14,4.97,3.43.74,2.49.82,5.01.23,7.55Z"/>
  <path class="cls-1" d="M151.35,88.18c-1.93-5.88-5.99-8.74-12.18-8.58-1.59.24-3.08.8-4.46,1.66-3.76,2.85-5.41,6.64-4.97,11.38.6,5.02,3.25,8.43,7.95,10.24,3.76.93,7.15.21,10.18-2.17,3.44-3.52,4.6-7.7,3.49-12.52ZM145.29,94.82c-.48,1.96-1.64,3.32-3.49,4.06-2.64.41-4.45-.64-5.43-3.14-.26-.74-.45-1.51-.57-2.29-.08-1.45-.08-2.9,0-4.35.29-1.74,1.07-3.21,2.34-4.4.6-.42,1.25-.7,1.94-.86,2.45,0,4.11,1.14,4.97,3.43.74,2.49.82,5.01.23,7.55Z"/>
  <path class="cls-1" d="M91.54,89.78c-1.22-6.95-5.36-10.34-12.41-10.18-5.44,1.31-8.63,4.74-9.55,10.29-.11,6.9-.07,13.8.11,20.7.21.89.61,1.67,1.2,2.34,1.45,1.1,3.09,1.57,4.92,1.43-.25-4.04-.29-8.08-.11-12.12,3.61,1.54,7.12,1.33,10.52-.63,3.99-2.92,5.76-6.87,5.32-11.84ZM85.25,94.59c-.32,1.54-1.1,2.78-2.34,3.72-3.08,1.41-5.31.55-6.69-2.57-.28-.7-.47-1.42-.57-2.17-.11-1.72-.05-3.44.17-5.15.51-2.26,1.84-3.74,4-4.46,2.62-.04,4.35,1.18,5.2,3.66.59,2.3.67,4.63.23,6.98Z"/>
  <path class="cls-1" d="M105.1,98.36c0-.06.04-.1.11-.11.15.51.15,1.01,0,1.49.04-.48,0-.94-.11-1.37Z"/>
  <path class="cls-1" d="M8.69,112.89c2.07-.25,3.94.22,5.6,1.43.11.22.26.41.46.57-.27.59-.72.88-1.37.86-.76-.21-1.52-.42-2.29-.63-3.07-.18-5.03,1.22-5.89,4.17-.58,2.41-.27,4.7.91,6.86,1.23,1.69,2.89,2.4,4.97,2.12.77-.21,1.53-.42,2.29-.63,1.61.38,1.73,1.01.34,1.89-2.59,1.27-5.18,1.27-7.78,0-2.6-1.56-4.03-3.86-4.29-6.92-.27-5.18,2.07-8.42,7.03-9.72Z"/>
  <path class="cls-1" d="M123.96,112.89c1.82.06,2.38.94,1.66,2.63-.88.91-1.75.91-2.63,0-.49-1.2-.16-2.07.97-2.63Z"/>
  <path class="cls-1" d="M16.01,113.11c1.13-.07,2.07.31,2.8,1.14.1.18.17.37.23.57.04,4.23.08,8.46.11,12.69.31.96.88,1.15,1.72.57.01,2.05-1,2.83-3.03,2.34-.83-.38-1.38-1.01-1.66-1.89-.03-5.15-.08-10.29-.17-15.44Z"/>
  <path class="cls-1" d="M116.65,114.71h1.03c-.11,1.33-.15,2.66-.11,4h3.32c.03,1.23-.55,2.01-1.72,2.34-.53.06-1.07.08-1.6.06-.02,1.53,0,3.05.06,4.57.34,2.22,1.57,3.04,3.72,2.46.18,1.17-.32,1.93-1.49,2.29-2.52.18-4.18-.95-4.97-3.37-.09-.34-.17-.68-.23-1.03-.08-3.2-.08-6.4,0-9.61.38-.93,1.04-1.5,2-1.72Z"/>
  <path class="cls-1" d="M66.16,115.74c-2.28-2.3-5.04-3.26-8.29-2.86-.52.09-1.05.18-1.6.29-1.06.41-1.76,1.15-2.12,2.23-.18,4.04-.22,8.08-.11,12.12.2,1.23.87,2.08,2,2.57,1.58.37,3.18.49,4.8.34,3.53-.61,5.83-2.61,6.92-6,.85-3.17.31-6.07-1.6-8.69ZM63.53,126.49c-1.44,1.53-3.22,2.12-5.32,1.77-.51-.04-.87-.28-1.09-.74-.08-3.93-.08-7.85,0-11.78.29-.36.65-.59,1.09-.69,3.49-.42,5.64,1.07,6.46,4.46.51,2.48.13,4.81-1.14,6.98Z"/>
  <path class="cls-1" d="M128.31,118.83c1.19-.24,2.2.07,3.03.91.99,2.44,1.98,4.88,2.97,7.32.96-2.55,1.99-5.06,3.09-7.55.95-.7,2-.87,3.14-.51-1.23,3.16-2.51,6.31-3.83,9.43-.3.72-.74,1.35-1.32,1.89-.84.44-1.7.5-2.57.17-1.57-3.82-3.15-7.63-4.75-11.44.08-.08.16-.15.23-.23Z"/>
  <path class="cls-1" d="M24.59,118.95h1.14c-.05,2.63,0,5.27.17,7.89.62,1.53,1.71,1.97,3.26,1.32.54-.38.87-.89.97-1.54.14-1.94.22-3.88.23-5.83.24-.81.75-1.36,1.54-1.66.49-.11.99-.16,1.49-.17.02,2.52,0,5.03-.06,7.55-.6,2.81-2.36,4.18-5.26,4.12-1.96.17-3.52-.51-4.69-2.06-.25-.43-.44-.89-.57-1.37-.18-2.17-.22-4.34-.11-6.52.36-.87.99-1.45,1.89-1.72Z"/>
  <path class="cls-1" d="M110.93,118.95c.8-.02,1.6,0,2.4.06.22.7.07,1.31-.46,1.83-.65.19-1.3.38-1.94.57-.51.35-.83.83-.97,1.43-.21,2.48-.23,4.95-.06,7.43-.97.08-1.83-.19-2.57-.8-.11-.19-.23-.38-.34-.57-.19-1.97-.22-3.96-.11-5.95.43-2.28,1.79-3.62,4.06-4Z"/>
  <path class="cls-1" d="M78.22,127.64c-.77.17-1.53.38-2.29.63-1.94.17-3.01-.72-3.2-2.69,1.45.32,2.9.3,4.35-.06.88-.22,1.62-.66,2.23-1.32.84-1.58.63-3.01-.63-4.29-1.32-.98-2.81-1.38-4.46-1.2-.54.11-1.07.28-1.6.51-2.44,1.52-3.42,3.71-2.92,6.58.32,1.6,1.14,2.88,2.46,3.83,2.75,1.41,5.22,1.03,7.43-1.14-.29-.55-.75-.83-1.37-.86ZM74.68,120.78c.87-.13,1.61.1,2.23.69.42,1.45-.13,2.24-1.66,2.34-.85.06-1.68,0-2.52-.17.05-1.37.7-2.32,1.94-2.86Z"/>
  <path class="cls-1" d="M46.14,122.49c-1.55-3.34-4.08-4.44-7.6-3.32-.15-2.02-.15-4.04,0-6.06h-1.03c-.48.14-.94.35-1.37.63-.34.33-.55.73-.63,1.2-.08,3.62-.08,7.24,0,10.86.43,2.1,1.63,3.57,3.6,4.4,2.24.64,4.2.17,5.89-1.43,1.43-1.89,1.81-3.99,1.14-6.29ZM42.6,127.52c-1.25,1.12-2.43,1.05-3.55-.23-.64-1.43-.79-2.92-.46-4.46.3-1,.93-1.69,1.89-2.06,1.51-.03,2.45.69,2.8,2.17.39,1.63.16,3.15-.69,4.57Z"/>
  <path class="cls-1" d="M104.81,123.29c-.87-3.25-2.99-4.81-6.35-4.69-2.42.54-3.93,2.02-4.52,4.46-.28,1.74-.02,3.38.8,4.92,2.18,2.89,4.83,3.41,7.95,1.54,1.77-1.7,2.48-3.78,2.12-6.23ZM101.72,126.15c-.32,1.28-1.13,2.04-2.4,2.29-.7-.06-1.27-.37-1.72-.91-.7-1.28-.93-2.66-.69-4.12.14-1.3.81-2.18,2-2.63,1.54.02,2.47.78,2.8,2.29.08,1.03.08,2.06,0,3.09Z"/>
  <path class="cls-1" d="M151.58,123.29c-.87-3.25-2.99-4.81-6.35-4.69-2.42.54-3.93,2.02-4.52,4.46-.28,1.74-.02,3.38.8,4.92,2.18,2.89,4.83,3.41,7.95,1.54,1.77-1.7,2.48-3.78,2.12-6.23ZM148.49,126.15c-.32,1.28-1.13,2.04-2.4,2.29-.7-.06-1.27-.37-1.72-.91-.7-1.28-.93-2.66-.69-4.12.14-1.3.81-2.18,2-2.63,1.54.02,2.47.78,2.8,2.29.08,1.03.08,2.06,0,3.09Z"/>
  <path class="cls-1" d="M91.89,122.83c-1.06-3.06-3.21-4.43-6.46-4.12-2.27.73-3.7,2.25-4.29,4.57-.08,3.7-.08,7.4,0,11.09.11.33.26.63.46.91.74.61,1.6.88,2.57.8-.13-2.02-.15-4.04-.06-6.06,1.66.77,3.32.75,4.97-.06,2.52-1.74,3.46-4.12,2.8-7.15ZM88.23,127.64c-1.25,1.12-2.43,1.05-3.55-.23-.69-1.55-.81-3.16-.34-4.8.36-.83.95-1.4,1.77-1.72,1.51-.03,2.45.69,2.8,2.17.39,1.63.16,3.15-.69,4.57Z"/>
  <path class="cls-1" d="M127.62,128.09c-.07.01-.11.05-.11.11-.69.42-1.2.26-1.54-.46-.09-2.94-.07-5.87.06-8.81-.38-.02-.76,0-1.14.06-1.23.24-1.9.98-2,2.23-.08,2.32-.08,4.65,0,6.98.5,1.87,1.7,2.61,3.6,2.23.67-.3,1.05-.81,1.14-1.54.15-.25.15-.52,0-.8Z"/>
</svg>